<?xml version="1.0" encoding="UTF-8"?>
<svg id="Camada_1" xmlns="http://www.w3.org/2000/svg" version="1.1" xmlns:xlink="http://www.w3.org/1999/xlink" viewBox="0 0 1920 1080">
  <!-- Generator: Adobe Illustrator 30.2.1, SVG Export Plug-In . SVG Version: 2.1.1 Build 1)  -->
  <defs>
    <style>
      .st0 {
        fill: url(#Gradiente_sem_nome_61);
      }

      .st1 {
        fill: none;
        stroke: #00e3e4;
        stroke-miterlimit: 10;
        stroke-width: 10px;
      }

      .st2 {
        fill: #00e3e4;
      }
    </style>
    <linearGradient id="Gradiente_sem_nome_61" data-name="Gradiente sem nome 61" x1="484.25" y1="540" x2="1435.75" y2="540" gradientUnits="userSpaceOnUse">
      <stop offset="0" stop-color="#00befa"/>
      <stop offset="1" stop-color="#00fdd3"/>
    </linearGradient>
  </defs>
  <g>
    <path class="st1" d="M600.05,173.67h721.42c56.71,2.66,96.39,17.32,114.27,73.07v594.69c-11.7,32.26-28.26,54.71-62.32,64.89h-824.38c-38.63-15.03-61.56-42.44-64.8-85.06v-345.2c6.37-77.64-1.62-157.66,4.28-235.59,18.84-48.72,61.18-65.08,111.52-66.79M547.15,199.08c137.59,96.77,273.94,201.05,412.95,295.25,72.69-44.82,138.92-100.95,210-148.24,42.72-34.25,88.68-63.75,132.26-96.86,22.46-17.32,51.38-29.78,70.32-50.62-275.08,1.62-550.35.67-825.52.48M591.77,371.68c-3.52,166.89-3.14,334.17-6.28,500.87,105.33-91.91,222.94-181.55,329.5-267.66-105.05-77.45-218.18-156.14-323.22-233.21M1312.43,384.24c-99.05,74.31-208.38,147.67-308.19,221.13,109.23,88.96,224.36,175.55,330.26,268.89-2.09-168.8-1.33-337.78-.1-506.58-7.52,5.33-14.84,10.85-21.98,16.56M588.35,887.01c228.45-2.09,457.1-.19,685.55-.86,19.51-.38,38.73.57,58.14,2.38-84.4-74.22-176.5-142.53-262.42-215.51-25.88-19.22-51-39.39-72.88-63.18-13.04,7.42-24.07,16.75-36.25,25.31-12.46-8.85-23.98-18.46-37.2-26.07-83.16,76.88-175.84,144.06-262.33,217.13-24.07,21.98-51.38,35.59-72.6,60.8h0Z"/>
    <path class="st2" d="M600.05,173.67h721.42c56.71,2.66,96.39,17.32,114.27,73.07v594.69c-11.7,32.26-28.26,54.71-62.32,64.89h-824.38c-38.63-15.03-61.56-42.44-64.8-85.06v-345.2c6.37-77.64-1.62-157.66,4.28-235.59,18.84-48.72,61.18-65.08,111.52-66.79M547.15,199.08c137.59,96.77,273.94,201.05,412.95,295.25,72.69-44.82,138.92-100.95,210-148.24,42.72-34.25,88.68-63.75,132.26-96.86,22.46-17.32,51.38-29.78,70.32-50.62-275.08,1.62-550.35.67-825.52.48M591.77,371.68c-3.52,166.89-3.14,334.17-6.28,500.87,105.33-91.91,222.94-181.55,329.5-267.66-105.05-77.45-218.18-156.14-323.22-233.21M1312.43,384.24c-99.05,74.31-208.38,147.67-308.19,221.13,109.23,88.96,224.36,175.55,330.26,268.89-2.09-168.8-1.33-337.78-.1-506.58-7.52,5.33-14.84,10.85-21.98,16.56M588.35,887.01c228.45-2.09,457.1-.19,685.55-.86,19.51-.38,38.73.57,58.14,2.38-84.4-74.22-176.5-142.53-262.42-215.51-25.88-19.22-51-39.39-72.88-63.18-13.04,7.42-24.07,16.75-36.25,25.31-12.46-8.85-23.98-18.46-37.2-26.07-83.16,76.88-175.84,144.06-262.33,217.13-24.07,21.98-51.38,35.59-72.6,60.8h0Z"/>
  </g>
  <g>
    <path class="st0" d="M600.05,173.67h721.42c56.71,2.66,96.39,17.32,114.27,73.07v594.69c-11.7,32.26-28.26,54.71-62.32,64.89h-824.38c-38.63-15.03-61.56-42.44-64.8-85.06v-345.2c6.37-77.64-1.62-157.66,4.28-235.59,18.84-48.72,61.18-65.08,111.52-66.79M547.15,199.08c137.59,96.77,273.94,201.05,412.95,295.25,72.69-44.82,138.92-100.95,210-148.24,42.72-34.25,88.68-63.75,132.26-96.86,22.46-17.32,51.38-29.78,70.32-50.62-275.08,1.62-550.35.67-825.52.48M591.77,371.68c-3.52,166.89-3.14,334.17-6.28,500.87,105.33-91.91,222.94-181.55,329.5-267.66-105.05-77.45-218.18-156.14-323.22-233.21M1312.43,384.24c-99.05,74.31-208.38,147.67-308.19,221.13,109.23,88.96,224.36,175.55,330.26,268.89-2.09-168.8-1.33-337.78-.1-506.58-7.52,5.33-14.84,10.85-21.98,16.56M588.35,887.01c228.45-2.09,457.1-.19,685.55-.86,19.51-.38,38.73.57,58.14,2.38-84.4-74.22-176.5-142.53-262.42-215.51-25.88-19.22-51-39.39-72.88-63.18-13.04,7.42-24.07,16.75-36.25,25.31-12.46-8.85-23.98-18.46-37.2-26.07-83.16,76.88-175.84,144.06-262.33,217.13-24.07,21.98-51.38,35.59-72.6,60.8h0Z"/>
    <path class="st0" d="M600.05,173.67h721.42c56.71,2.66,96.39,17.32,114.27,73.07v594.69c-11.7,32.26-28.26,54.71-62.32,64.89h-824.38c-38.63-15.03-61.56-42.44-64.8-85.06v-345.2c6.37-77.64-1.62-157.66,4.28-235.59,18.84-48.72,61.18-65.08,111.52-66.79M547.15,199.08c137.59,96.77,273.94,201.05,412.95,295.25,72.69-44.82,138.92-100.95,210-148.24,42.72-34.25,88.68-63.75,132.26-96.86,22.46-17.32,51.38-29.78,70.32-50.62-275.08,1.62-550.35.67-825.52.48M591.77,371.68c-3.52,166.89-3.14,334.17-6.28,500.87,105.33-91.91,222.94-181.55,329.5-267.66-105.05-77.45-218.18-156.14-323.22-233.21M1312.43,384.24c-99.05,74.31-208.38,147.67-308.19,221.13,109.23,88.96,224.36,175.55,330.26,268.89-2.09-168.8-1.33-337.78-.1-506.58-7.52,5.33-14.84,10.85-21.98,16.56M588.35,887.01c228.45-2.09,457.1-.19,685.55-.86,19.51-.38,38.73.57,58.14,2.38-84.4-74.22-176.5-142.53-262.42-215.51-25.88-19.22-51-39.39-72.88-63.18-13.04,7.42-24.07,16.75-36.25,25.31-12.46-8.85-23.98-18.46-37.2-26.07-83.16,76.88-175.84,144.06-262.33,217.13-24.07,21.98-51.38,35.59-72.6,60.8h0Z"/>
  </g>
</svg>