<?xml version="1.0" encoding="UTF-8"?>
<svg id="Camada_1" xmlns="http://www.w3.org/2000/svg" version="1.1" viewBox="0 0 1920 1080">
  <!-- Generator: Adobe Illustrator 30.2.1, SVG Export Plug-In . SVG Version: 2.1.1 Build 1)  -->
  <defs>
    <style>
      .st0 {
        fill: #858585;
      }
    </style>
  </defs>
  <path class="st0" d="M572.41,64h775.47l1.82.15,1.52.2c10.45,1.67,19.36,8.78,23.04,18.72,2.99,7.75,1.36,16.51.86,24.62-20.17,258.17-40.37,516.35-60.5,774.5-.61,7.83-2.49,15.17-7.98,21.05-4.5,5-10.34,7.49-16.6,9.54-102.58,32.48-205.14,65.06-307.73,97.54-7.08,2.32-14.06,4.72-21.51,5.67h-1.58c-6.92-.91-13.48-3.03-20.08-5.22-103.49-32.82-207-65.62-310.5-98.45-5.75-1.95-11.08-4.5-15.21-9.07-5.49-5.88-7.36-13.22-7.98-21.05-20.38-261.95-41.09-524.81-61.38-786.63-1.38-16.7,11.7-30.96,28.34-31.57M694.44,238.15c8.29,106.19,16.57,212.4,24.86,318.6,125.04.09,250.1-.02,375.15.06-3.18,43.47-6.27,86.94-9.45,130.42-39.47,10.73-79.04,21.35-118.52,32.09-4.18,1.47-7.42-.37-11.53-1.3-38.1-10.34-76.23-20.49-114.35-30.79.04-27.28.02-54.57.02-81.85-39.16-.02-78.32,0-117.49,0,4.33,55.61,8.68,111.25,13.02,166.86,71.18,22.72,142.45,45.18,213.64,67.83,3.38,1.06,6.77,2.38,10.25,3.01,3.48-.63,6.86-1.95,10.25-3.01,71.2-22.65,142.47-45.11,213.64-67.83,8.31-106.47,16.68-212.94,24.95-319.4-127.22.02-254.47.06-381.71-.02-4.11-37.35-8.16-74.71-12.2-112.06,134.21,0,268.44.04,402.65-.02,2.66-34.19,5.36-68.39,8.01-102.58h-531.19Z"/>
</svg>