<?xml version="1.0" encoding="UTF-8"?>
<svg id="Camada_1" xmlns="http://www.w3.org/2000/svg" version="1.1" viewBox="0 0 1920 1080">
  <!-- Generator: Adobe Illustrator 30.2.1, SVG Export Plug-In . SVG Version: 2.1.1 Build 1)  -->
  <defs>
    <style>
      .st0 {
        fill: #727272;
      }

      .st1 {
        fill: #acacac;
      }
    </style>
  </defs>
  <path class="st1" d="M943.69,3.5h26.09l4.91.48,3.53.43c39.82,2.81,76.73,15.83,112.74,32.24,80.02,42.73,141.35,114.21,175.35,197.96,34.81,86.22,46.16,182.27,37.63,274.54-7.58,87.32-47.16,170.25-111.45,229.91-38.96,34.86-87.22,60.99-139.54,67.67-25.37,4.29-49.79.91-74.87-3.34,16.5-11.25,33.33-21.7,48.17-35.29,51.84-44.83,85.12-107.97,94.85-175.69,8.63-61.9,2.67-128.33-22.89-185.84-27.66-61.8-78.69-113.64-141.11-140.3-54.22-18.69-115.88-14.83-168.48,7.63-63.14,27.23-114.93,78.31-146.21,139.2-36.58,69.53-49.12,146.69-46.5,224.66,3.67,102.67,25.23,206.35,83.93,292.38,37.86,56.37,90.85,98.72,151.46,128.47-124.28-33.76-238.64-109.45-312.6-215.6-58.42-83.6-91.18-184.32-92.61-286.32-4.05-106.92,26.13-214.41,84.31-304.11,64.05-98.72,160.52-175.45,270.87-216.17,52.22-20.27,106.78-29.09,162.43-32.91h0ZM1104.78,25.82c5.39,1.86,10.78,3.72,16.17,5.58,102.44,34.77,194.81,96.09,262.24,181.17,61.61,76.4,98.33,170.39,108.59,267.77,6.1,73.39,1.81,146.69-20.94,217.08-33.38,107.97-102.53,202.96-193.04,270.3-77.59,58.13-171.01,94.81-267.58,104.39-17.02,1.86-34.24-.05-50.36,4.39h-1.62c-25.18-4.34-50.17-7.73-74.39-16.21-87.46-27.99-163-89.42-207.16-170.06-40.2-73.3-58.37-159.85-60.85-242.93-2.96-71.1,4.96-141.02,34.96-206.21,30.57-68.67,85.27-127.9,156.8-153.99,40.77-15.88,84.74-17.5,127.42-9.25-28.57,18.17-54.94,38.82-76.4,65.19-46.74,55.32-69.01,127.42-67.81,199.34-.43,43.64,7.96,87.7,24.94,127.95,26.23,61.33,74.87,112.4,135.1,141.16,43.92,20.51,94.66,20.89,140.63,7.34,68.48-20.41,125.76-65.81,166.39-123.94,37.96-55.08,59.47-119.56,66-185.89,7.25-108.49-7.15-220.37-58.09-317.61-36.43-69.91-92.33-126.95-161-165.58h0Z"/>
  <path class="st1" d="M943.69,3.5h26.09l4.91.48,3.53.43c39.82,2.81,76.73,15.83,112.74,32.24,80.02,42.73,141.35,114.21,175.35,197.96,34.81,86.22,46.16,182.27,37.63,274.54-7.58,87.32-47.16,170.25-111.45,229.91-38.96,34.86-87.22,60.99-139.54,67.67-25.37,4.29-49.79.91-74.87-3.34,16.5-11.25,33.33-21.7,48.17-35.29,51.84-44.83,85.12-107.97,94.85-175.69,8.63-61.9,2.67-128.33-22.89-185.84-27.66-61.8-78.69-113.64-141.11-140.3-54.22-18.69-115.88-14.83-168.48,7.63-63.14,27.23-114.93,78.31-146.21,139.2-36.58,69.53-49.12,146.69-46.5,224.66,3.67,102.67,25.23,206.35,83.93,292.38,37.86,56.37,90.85,98.72,151.46,128.47-124.28-33.76-238.64-109.45-312.6-215.6-58.42-83.6-91.18-184.32-92.61-286.32-4.05-106.92,26.13-214.41,84.31-304.11,64.05-98.72,160.52-175.45,270.87-216.17,52.22-20.27,106.78-29.09,162.43-32.91h0Z"/>
  <path class="st0" d="M1104.78,25.82c5.39,1.86,10.78,3.72,16.17,5.58,102.44,34.77,194.81,96.09,262.24,181.17,61.61,76.4,98.33,170.39,108.59,267.77,6.1,73.39,1.81,146.69-20.94,217.08-33.38,107.97-102.53,202.96-193.04,270.3-77.59,58.13-171.01,94.81-267.58,104.39-17.02,1.86-34.24-.05-50.36,4.39h-1.62c-25.18-4.34-50.17-7.73-74.39-16.21-87.46-27.99-163-89.42-207.16-170.06-40.2-73.3-58.37-159.85-60.85-242.93-2.96-71.1,4.96-141.02,34.96-206.21,30.57-68.67,85.27-127.9,156.8-153.99,40.77-15.88,84.74-17.5,127.42-9.25-28.57,18.17-54.94,38.82-76.4,65.19-46.74,55.32-69.01,127.42-67.81,199.34-.43,43.64,7.96,87.7,24.94,127.95,26.23,61.33,74.87,112.4,135.1,141.16,43.92,20.51,94.66,20.89,140.63,7.34,68.48-20.41,125.76-65.81,166.39-123.94,37.96-55.08,59.47-119.56,66-185.89,7.25-108.49-7.15-220.37-58.09-317.61-36.43-69.91-92.33-126.95-161-165.58h0Z"/>
</svg>