<?xml version="1.0" encoding="UTF-8"?>
<svg id="Camada_1" xmlns="http://www.w3.org/2000/svg" version="1.1" xmlns:xlink="http://www.w3.org/1999/xlink" viewBox="0 0 1920 1080">
  <!-- Generator: Adobe Illustrator 30.2.1, SVG Export Plug-In . SVG Version: 2.1.1 Build 1)  -->
  <defs>
    <style>
      .st0 {
        fill: url(#Nova_amostra_de_gradiente_11);
      }

      .st1 {
        fill: url(#Nova_amostra_de_gradiente_13);
      }

      .st2 {
        fill: url(#Nova_amostra_de_gradiente_12);
      }

      .st3 {
        fill: url(#Nova_amostra_de_gradiente_1);
        stroke: #00d9eb;
        stroke-miterlimit: 10;
        stroke-width: 10px;
      }

      .st4 {
        fill: url(#Gradiente_sem_nome_29);
      }
    </style>
    <linearGradient id="Nova_amostra_de_gradiente_1" data-name="Nova amostra de gradiente 1" x1="578.53" y1="540" x2="1341.47" y2="540" gradientUnits="userSpaceOnUse">
      <stop offset="0" stop-color="#fff"/>
      <stop offset="1" stop-color="#000"/>
    </linearGradient>
    <linearGradient id="Nova_amostra_de_gradiente_11" data-name="Nova amostra de gradiente 1" y1="250.27" x2="763.96" y2="250.27" xlink:href="#Nova_amostra_de_gradiente_1"/>
    <linearGradient id="Nova_amostra_de_gradiente_12" data-name="Nova amostra de gradiente 1" x1="850.43" y1="661.04" y2="661.04" xlink:href="#Nova_amostra_de_gradiente_1"/>
    <linearGradient id="Nova_amostra_de_gradiente_13" data-name="Nova amostra de gradiente 1" x1="592.01" y1="667.38" x2="752.45" y2="667.38" xlink:href="#Nova_amostra_de_gradiente_1"/>
    <linearGradient id="Gradiente_sem_nome_29" data-name="Gradiente sem nome 29" x1="578.53" y1="540" x2="1341.47" y2="540" gradientUnits="userSpaceOnUse">
      <stop offset="0" stop-color="#00befa"/>
      <stop offset="1" stop-color="#00fdd3"/>
    </linearGradient>
  </defs>
  <g>
    <path class="st3" d="M667.81,157.58h5.97l1.69.4c46.95,5.97,86.63,40.08,88.32,89.02,3.38,54.01-45.16,100.76-98.96,95.58-59.48-2.49-104.44-69.33-79.07-124.43,12.73-35.81,44.36-53.11,80.07-60.07l1.99-.5h0ZM1269.66,428.41c44.96,30.34,59.48,75.19,71.81,125.42v368.31c-51.72.2-103.54.3-155.26.1-.3-91.7.6-183.51-.3-275.21-.99-36.1-5.07-74.89-37.99-96.58-32.33-19-80.07-13.03-108.41,11.04-23.47,24.87-27.45,61.07-28.55,93.69-.5,89.02.2,178.04-.2,267.06-53.41.1-106.82.4-160.23-.1-.1-169.88-.2-339.66.1-509.54,50.82-.4,101.65-.2,152.48-.1.2,24.37.2,48.74.1,73.1,50.43-94.49,180.62-107.12,266.46-57.19h0ZM592.22,412.6c53.31-.4,106.62-.2,159.94-.1.4,169.88.3,339.76.2,509.74-53.51.1-106.92.4-160.33-.2.1-169.78-.2-339.66.2-509.44h0Z"/>
    <path class="st0" d="M667.81,157.58h5.97l1.69.4c46.95,5.97,86.63,40.08,88.32,89.02,3.38,54.01-45.16,100.76-98.96,95.58-59.48-2.49-104.44-69.33-79.07-124.43,12.73-35.81,44.36-53.11,80.07-60.07l1.99-.5h0Z"/>
    <path class="st2" d="M1269.66,428.41c44.96,30.34,59.48,75.19,71.81,125.42v368.31c-51.72.2-103.54.3-155.26.1-.3-91.7.6-183.51-.3-275.21-.99-36.1-5.07-74.89-37.99-96.58-32.33-19-80.07-13.03-108.41,11.04-23.47,24.87-27.45,61.07-28.55,93.69-.5,89.02.2,178.04-.2,267.06-53.41.1-106.82.4-160.23-.1-.1-169.88-.2-339.66.1-509.54,50.82-.4,101.65-.2,152.48-.1.2,24.37.2,48.74.1,73.1,50.43-94.49,180.62-107.12,266.46-57.19h0Z"/>
    <path class="st1" d="M592.22,412.6c53.31-.4,106.62-.2,159.94-.1.4,169.88.3,339.76.2,509.74-53.51.1-106.92.4-160.33-.2.1-169.78-.2-339.66.2-509.44h0Z"/>
  </g>
  <g>
    <path class="st4" d="M667.81,157.58h5.97l1.69.4c46.95,5.97,86.63,40.08,88.32,89.02,3.38,54.01-45.16,100.76-98.96,95.58-59.48-2.49-104.44-69.33-79.07-124.43,12.73-35.81,44.36-53.11,80.07-60.07l1.99-.5h0ZM1269.66,428.41c44.96,30.34,59.48,75.19,71.81,125.42v368.31c-51.72.2-103.54.3-155.26.1-.3-91.7.6-183.51-.3-275.21-.99-36.1-5.07-74.89-37.99-96.58-32.33-19-80.07-13.03-108.41,11.04-23.47,24.87-27.45,61.07-28.55,93.69-.5,89.02.2,178.04-.2,267.06-53.41.1-106.82.4-160.23-.1-.1-169.88-.2-339.66.1-509.54,50.82-.4,101.65-.2,152.48-.1.2,24.37.2,48.74.1,73.1,50.43-94.49,180.62-107.12,266.46-57.19h0ZM592.22,412.6c53.31-.4,106.62-.2,159.94-.1.4,169.88.3,339.76.2,509.74-53.51.1-106.92.4-160.33-.2.1-169.78-.2-339.66.2-509.44h0Z"/>
    <path class="st4" d="M667.81,157.58h5.97l1.69.4c46.95,5.97,86.63,40.08,88.32,89.02,3.38,54.01-45.16,100.76-98.96,95.58-59.48-2.49-104.44-69.33-79.07-124.43,12.73-35.81,44.36-53.11,80.07-60.07l1.99-.5h0Z"/>
    <path class="st4" d="M1269.66,428.41c44.96,30.34,59.48,75.19,71.81,125.42v368.31c-51.72.2-103.54.3-155.26.1-.3-91.7.6-183.51-.3-275.21-.99-36.1-5.07-74.89-37.99-96.58-32.33-19-80.07-13.03-108.41,11.04-23.47,24.87-27.45,61.07-28.55,93.69-.5,89.02.2,178.04-.2,267.06-53.41.1-106.82.4-160.23-.1-.1-169.88-.2-339.66.1-509.54,50.82-.4,101.65-.2,152.48-.1.2,24.37.2,48.74.1,73.1,50.43-94.49,180.62-107.12,266.46-57.19h0Z"/>
    <path class="st4" d="M592.22,412.6c53.31-.4,106.62-.2,159.94-.1.4,169.88.3,339.76.2,509.74-53.51.1-106.92.4-160.33-.2.1-169.78-.2-339.66.2-509.44h0Z"/>
  </g>
</svg>