<?xml version="1.0" encoding="UTF-8"?>
<svg id="Camada_1" xmlns="http://www.w3.org/2000/svg" version="1.1" viewBox="0 0 1920 1080">
  <!-- Generator: Adobe Illustrator 30.2.1, SVG Export Plug-In . SVG Version: 2.1.1 Build 1)  -->
  <defs>
    <style>
      .st0 {
        fill: none;
      }

      .st1 {
        fill: #00e6e2;
      }
    </style>
  </defs>
  <path class="st0" d="M1430.99,18.34h6.3v43.6c-28.35,74.61-42.03,154.53-63.68,231.3-17.52-19.49-35.04-42.13-56.6-57.19-10.63-3.54-21.56,10.63-28.94,16.63-99.9,103.94-204.63,203.45-304.43,307.49-39.67-32.38-69.88-74.31-109.25-106.5-18.6,4.63-32.38,26.08-45.87,38.78-86.02,88.39-174.61,174.41-261.22,262.21-23.23-23.72-47.54-46.06-74.9-65.16v-8.07c51.58-41.14,93.31-92.42,141.93-137.31,77.46-79.92,159.65-155.61,234.26-238,40.65,34.25,74.21,75.2,113.78,110.73,84.16-88.58,172.35-173.62,258.37-260.54-22.83-21.06-45.37-42.62-67.91-64.08,83.37-31.5,178.74-33.76,258.17-73.92h0Z"/>
  <path class="st0" d="M1263.47,446c43.7-.39,88.19-2.76,131.79,1.18,8.27,9.45,3.94,31.3,5.51,43.6-.98,170.57-.49,341.25-.3,511.82-.3,19.78-.79,39.47-3.15,59.06h-134.06c-.3-205.12-.79-410.54.2-615.66h0ZM1035.51,566.08c46.16-.89,92.32-.98,138.39-.1,0,122.54.1,245.18,0,367.72.1,42.13,2.07,86.12-3.44,127.95h-134.06c-1.08-165.16.49-330.42-.89-495.58h0ZM802.44,691.68c45.47-.39,90.95-.39,136.32.3-.49,123.23.1,246.46-.29,369.69h-135.63c-.49-123.33.1-246.66-.39-369.99h0ZM579.4,814.12c44.78-2.26,89.67-1.48,134.45-1.28,1.08,82.97.49,165.85.39,248.82h-136.22c.69-82.48-2.07-165.16,1.38-247.54h0Z"/>
  <path class="st1" d="M1421.31,18.34h6.3l-10.57,42.37c-16.33,83.29-31.46,155.77-53.12,232.54-17.52-19.49-35.04-42.13-56.6-57.19-10.63-3.54-21.56,10.63-28.94,16.63-99.9,103.94-204.63,203.45-304.43,307.49-39.67-32.38-69.88-74.31-109.25-106.5-18.6,4.63-32.38,26.08-45.87,38.78-86.02,88.39-174.61,174.41-261.22,262.21-23.23-23.72-47.54-46.06-74.9-65.16v-8.07c51.58-41.14,93.31-92.42,141.93-137.31,77.46-79.92,159.65-155.61,234.26-238,40.65,34.25,74.21,75.2,113.78,110.73,84.16-88.58,172.35-173.62,258.37-260.54-22.83-21.06-96.66-52.15-67.91-64.08,81.54-33.84,171.98-42.45,258.17-73.92h0Z"/>
  <path class="st1" d="M1263.47,446c43.7-.39,88.19-2.76,131.79,1.18,8.27,9.45,3.94,31.3,5.51,43.6-.98,170.57-.49,341.25-.3,511.82-.3,19.78-.79,39.47-3.15,59.06h-134.06c-.3-205.12-.79-410.54.2-615.66h0Z"/>
  <path class="st1" d="M1035.51,566.08c46.16-.89,92.32-.98,138.39-.1,0,122.54.1,245.18,0,367.72.1,42.13,2.07,86.12-3.44,127.95h-134.06c-1.08-165.16.49-330.42-.89-495.58h0Z"/>
  <path class="st1" d="M802.44,691.68c45.47-.39,90.95-.39,136.32.3-.49,123.23.1,246.46-.29,369.69h-135.63c-.49-123.33.1-246.66-.39-369.99h0Z"/>
  <path class="st1" d="M579.4,814.12c44.78-2.26,89.67-1.48,134.45-1.28,1.08,82.97.49,165.85.39,248.82h-136.22c.69-82.48-2.07-165.16,1.38-247.54h0Z"/>
</svg>