<?xml version="1.0" encoding="UTF-8"?>
<svg id="Camada_1" xmlns="http://www.w3.org/2000/svg" version="1.1" xmlns:xlink="http://www.w3.org/1999/xlink" viewBox="0 0 1920 1080">
  <!-- Generator: Adobe Illustrator 30.2.1, SVG Export Plug-In . SVG Version: 2.1.1 Build 1)  -->
  <defs>
    <style>
      .st0 {
        fill: url(#Nova_amostra_de_gradiente_2);
      }

      .st1 {
        fill: #1d1d1b;
      }
    </style>
    <linearGradient id="Nova_amostra_de_gradiente_2" data-name="Nova amostra de gradiente 2" x1="474.23" y1="567.16" x2="1409.31" y2="567.16" gradientUnits="userSpaceOnUse">
      <stop offset="0" stop-color="#00befa"/>
      <stop offset="1" stop-color="#00fdd3"/>
    </linearGradient>
  </defs>
  <path class="st1" d="M649.35,99.62h18.46l10.69.49c68.86,27.2,85.49,102.37,120.95,160.3,21.37,43.6,66.06,93.02,65.33,142.69-3.4,52.22-56.71,58.53-92.29,83.31-12.27,23.19,12.51,48.7,25.38,66.31,52.58,60.23,110.02,118.28,171.59,169.29,18.94,12.51,34.61,31.45,59.02,23.44,24.77-33.27,28.78-84.28,76.14-92.66,51.13-6.8,107.84,38.62,152.53,60.6,55.01,34.49,127.75,54.4,152.16,120.47v48.45c-31.94,62.66-81.12,121.32-145.24,152.41h-95.57c-222.84-85.49-418.96-233.77-554-431.47-57.2-87.68-111.85-182.89-140.26-284.29v-37.77c19.92-82.94,100.55-148.16,175.12-181.55M1111.79,683.5c-21.37,31.82-37.89,73.35-67.4,98-48.58,18.82-81.36-14.94-116.22-42.63-63.39-53.68-122.29-113.3-174.14-178.27-16.52-22.83-37.4-50.15-25.62-79.66,12.39-38.37,70.43-44.2,92.9-70.92,10.2-22.59-13.24-55.38-23.68-75.05-32.18-50.4-56.47-104.68-86.22-156.29-12.75-19.31-34.97-50.64-61.81-36.92-42.02,20.4-83.91,56.23-112.45,92.9-25.5,32.79-28.3,70.92-14.94,109.42,97.52,255.02,289.02,470.94,532.39,595.54,49.79,24.41,104.8,56.71,160.54,62.3,52.46,1.34,89.26-40.07,120.59-76.51,20.28-26.6,48.21-55.86,31.57-91.69-16.03-22.95-45.18-38.5-68.73-52.7-61.21-33.88-122.77-69.95-186.77-97.52h0Z"/>
  <g>
    <path class="st0" d="M649.35,99.62h18.46l10.69.49c68.86,27.2,85.49,102.37,120.95,160.3,21.37,43.6,66.06,93.02,65.33,142.69-3.4,52.22-56.71,58.53-92.29,83.31-12.27,23.19,12.51,48.7,25.38,66.31,52.58,60.23,110.02,118.28,171.59,169.29,18.94,12.51,34.61,31.45,59.02,23.44,24.77-33.27,28.78-84.28,76.14-92.66,51.13-6.8,107.84,38.62,152.53,60.6,55.01,34.49,127.75,54.4,152.16,120.47v48.45c-31.94,62.66-81.12,121.32-145.24,152.41h-95.57c-222.84-85.49-418.96-233.77-554-431.47-57.2-87.68-111.85-182.89-140.26-284.29v-37.77c19.92-82.94,100.55-148.16,175.12-181.55M1111.79,683.5c-21.37,31.82-37.89,73.35-67.4,98-48.58,18.82-81.36-14.94-116.22-42.63-63.39-53.68-122.29-113.3-174.14-178.27-16.52-22.83-37.4-50.15-25.62-79.66,12.39-38.37,70.43-44.2,92.9-70.92,10.2-22.59-13.24-55.38-23.68-75.05-32.18-50.4-56.47-104.68-86.22-156.29-12.75-19.31-34.97-50.64-61.81-36.92-42.02,20.4-83.91,56.23-112.45,92.9-25.5,32.79-28.3,70.92-14.94,109.42,97.52,255.02,289.02,470.94,532.39,595.54,49.79,24.41,104.8,56.71,160.54,62.3,52.46,1.34,89.26-40.07,120.59-76.51,20.28-26.6,48.21-55.86,31.57-91.69-16.03-22.95-45.18-38.5-68.73-52.7-61.21-33.88-122.77-69.95-186.77-97.52h0Z"/>
    <path class="st0" d="M649.35,99.62h18.46l10.69.49c68.86,27.2,85.49,102.37,120.95,160.3,21.37,43.6,66.06,93.02,65.33,142.69-3.4,52.22-56.71,58.53-92.29,83.31-12.27,23.19,12.51,48.7,25.38,66.31,52.58,60.23,110.02,118.28,171.59,169.29,18.94,12.51,34.61,31.45,59.02,23.44,24.77-33.27,28.78-84.28,76.14-92.66,51.13-6.8,107.84,38.62,152.53,60.6,55.01,34.49,127.75,54.4,152.16,120.47v48.45c-31.94,62.66-81.12,121.32-145.24,152.41h-95.57c-222.84-85.49-418.96-233.77-554-431.47-57.2-87.68-111.85-182.89-140.26-284.29v-37.77c19.92-82.94,100.55-148.16,175.12-181.55M1111.79,683.5c-21.37,31.82-37.89,73.35-67.4,98-48.58,18.82-81.36-14.94-116.22-42.63-63.39-53.68-122.29-113.3-174.14-178.27-16.52-22.83-37.4-50.15-25.62-79.66,12.39-38.37,70.43-44.2,92.9-70.92,10.2-22.59-13.24-55.38-23.68-75.05-32.18-50.4-56.47-104.68-86.22-156.29-12.75-19.31-34.97-50.64-61.81-36.92-42.02,20.4-83.91,56.23-112.45,92.9-25.5,32.79-28.3,70.92-14.94,109.42,97.52,255.02,289.02,470.94,532.39,595.54,49.79,24.41,104.8,56.71,160.54,62.3,52.46,1.34,89.26-40.07,120.59-76.51,20.28-26.6,48.21-55.86,31.57-91.69-16.03-22.95-45.18-38.5-68.73-52.7-61.21-33.88-122.77-69.95-186.77-97.52h0Z"/>
    <path class="st0" d="M649.35,99.62h18.46l10.69.49c68.86,27.2,85.49,102.37,120.95,160.3,21.37,43.6,66.06,93.02,65.33,142.69-3.4,52.22-56.71,58.53-92.29,83.31-12.27,23.19,12.51,48.7,25.38,66.31,52.58,60.23,110.02,118.28,171.59,169.29,18.94,12.51,34.61,31.45,59.02,23.44,24.77-33.27,28.78-84.28,76.14-92.66,51.13-6.8,107.84,38.62,152.53,60.6,55.01,34.49,127.75,54.4,152.16,120.47v48.45c-31.94,62.66-81.12,121.32-145.24,152.41h-95.57c-222.84-85.49-418.96-233.77-554-431.47-57.2-87.68-111.85-182.89-140.26-284.29v-37.77c19.92-82.94,100.55-148.16,175.12-181.55M1111.79,683.5c-21.37,31.82-37.89,73.35-67.4,98-48.58,18.82-81.36-14.94-116.22-42.63-63.39-53.68-122.29-113.3-174.14-178.27-16.52-22.83-37.4-50.15-25.62-79.66,12.39-38.37,70.43-44.2,92.9-70.92,10.2-22.59-13.24-55.38-23.68-75.05-32.18-50.4-56.47-104.68-86.22-156.29-12.75-19.31-34.97-50.64-61.81-36.92-42.02,20.4-83.91,56.23-112.45,92.9-25.5,32.79-28.3,70.92-14.94,109.42,97.52,255.02,289.02,470.94,532.39,595.54,49.79,24.41,104.8,56.71,160.54,62.3,52.46,1.34,89.26-40.07,120.59-76.51,20.28-26.6,48.21-55.86,31.57-91.69-16.03-22.95-45.18-38.5-68.73-52.7-61.21-33.88-122.77-69.95-186.77-97.52h0Z"/>
  </g>
</svg>