<?xml version="1.0" encoding="UTF-8"?>
<svg id="Camada_1" xmlns="http://www.w3.org/2000/svg" version="1.1" xmlns:xlink="http://www.w3.org/1999/xlink" viewBox="0 0 1920 1080">
  <!-- Generator: Adobe Illustrator 30.2.1, SVG Export Plug-In . SVG Version: 2.1.1 Build 1)  -->
  <defs>
    <style>
      .st0 {
        fill: #000a0a;
      }

      .st1 {
        fill: none;
      }

      .st2 {
        fill: url(#Gradiente_sem_nome_29);
      }
    </style>
    <linearGradient id="Gradiente_sem_nome_29" data-name="Gradiente sem nome 29" x1="474.67" y1="540" x2="1445.33" y2="540" gradientUnits="userSpaceOnUse">
      <stop offset="0" stop-color="#00befa"/>
      <stop offset="1" stop-color="#00fdd3"/>
    </linearGradient>
  </defs>
  <path class="st1" d="M1365.92,73.74h7.82l2.1.27,1.43.21c27.38,3.6,51.83,21.64,62.23,47.39,3.15,7.57,4.82,15.94,5.84,24.05v9.53c-.57,5.17-1.51,10.3-2.4,15.41-48.13,256.95-96.21,513.9-144.34,770.83-2.73,15.73-9.92,30.47-21.21,41.84-12.95,13.16-29.96,20.67-48.17,23h-12.24c-12.83-1.28-25.15-5.11-36.04-12.11-223.6-140.64-447.21-281.26-670.79-421.94-20.52-12.91-33.32-35.09-35.47-59.12v-11.46c2.52-28.4,20-53.74,46.36-64.97,271.67-118.65,543.38-237.23,815.03-355.88,9.46-4.21,19.55-6.48,29.86-7.04M1391,169.05c1.11-6.79,3.36-14.13,2.82-21.02-1.51-12.91-13.64-23.53-26.7-22.98-6.79.29-13.75,4.27-19.97,6.85-265.05,115.74-530.11,231.45-795.18,347.15-5.8,2.61-12.72,4.92-17.56,9.1-9.38,8.14-11.12,23.3-4.21,33.54,3.57,5.59,10.47,9.1,15.94,12.62,217.74,136.94,435.48,273.9,653.22,410.86,5.4,3.3,11.29,7.86,17.49,9.23,11.38,2.56,23.89-3.45,28.83-14.04,2.19-5.09,2.94-11.08,4-16.5,47.06-251.61,94.22-503.22,141.31-754.83h0Z"/>
  <path class="st1" d="M1367.12,125.06c13.06-.55,25.19,10.07,26.7,22.98.53,6.88-1.72,14.23-2.82,21.02-47.08,251.61-94.24,503.22-141.31,754.83-1.07,5.42-1.81,11.4-4,16.5-4.94,10.58-17.45,16.59-28.83,14.04-6.2-1.37-12.09-5.93-17.49-9.23-217.74-136.96-435.48-273.92-653.22-410.86-5.47-3.53-12.38-7.04-15.94-12.62-6.9-10.24-5.17-25.4,4.21-33.54,4.84-4.18,11.77-6.48,17.56-9.1,265.07-115.7,530.13-231.41,795.18-347.15,6.22-2.57,13.18-6.56,19.97-6.85h0Z"/>
  <path class="st2" d="M1365.92,73.74h7.82l2.1.27,1.43.21c27.38,3.6,51.83,21.64,62.23,47.39,3.15,7.57,4.82,15.94,5.84,24.05v9.53c-.57,5.17-1.51,10.3-2.4,15.41-48.13,256.95-96.21,513.9-144.34,770.83-2.73,15.73-9.92,30.47-21.21,41.84-12.95,13.16-29.96,20.67-48.17,23h-12.24c-12.83-1.28-25.15-5.11-36.04-12.11-223.6-140.64-447.21-281.26-670.79-421.94-20.52-12.91-33.32-35.09-35.47-59.12v-11.46c2.52-28.4,20-53.74,46.36-64.97,271.67-118.65,543.38-237.23,815.03-355.88,9.46-4.21,19.55-6.48,29.86-7.04M1391,169.05c1.11-6.79,3.36-14.13,2.82-21.02-1.51-12.91-13.64-23.53-26.7-22.98-6.79.29-13.75,4.27-19.97,6.85-265.05,115.74-530.11,231.45-795.18,347.15-5.8,2.61-12.72,4.92-17.56,9.1-9.38,8.14-11.12,23.3-4.21,33.54,3.57,5.59,10.47,9.1,15.94,12.62,217.74,136.94,435.48,273.9,653.22,410.86,5.4,3.3,11.29,7.86,17.49,9.23,11.38,2.56,23.89-3.45,28.83-14.04,2.19-5.09,2.94-11.08,4-16.5,47.06-251.61,94.22-503.22,141.31-754.83h0Z"/>
  <path class="st0" d="M1367.12,125.06c13.06-.55,25.19,10.07,26.7,22.98.53,6.88-1.72,14.23-2.82,21.02-47.08,251.61-94.24,503.22-141.31,754.83-1.07,5.42-1.81,11.4-4,16.5-4.94,10.58-17.45,16.59-28.83,14.04-6.2-1.37-12.09-5.93-17.49-9.23-217.74-136.96-435.48-273.92-653.22-410.86-5.47-3.53-12.38-7.04-15.94-12.62-6.9-10.24-5.17-25.4,4.21-33.54,4.84-4.18,11.77-6.48,17.56-9.1,265.07-115.7,530.13-231.41,795.18-347.15,6.22-2.57,13.18-6.56,19.97-6.85h0Z"/>
</svg>