<?xml version="1.0" encoding="UTF-8"?>
<svg id="Camada_1" xmlns="http://www.w3.org/2000/svg" version="1.1" xmlns:xlink="http://www.w3.org/1999/xlink" viewBox="0 0 96 94">
  <!-- Generator: Adobe Illustrator 30.2.1, SVG Export Plug-In . SVG Version: 2.1.1 Build 1)  -->
  <defs>
    <style>
      .st0 {
        fill: url(#Gradiente_sem_nome_895);
      }

      .st1 {
        fill: url(#Gradiente_sem_nome_8914);
      }

      .st2 {
        fill: url(#Gradiente_sem_nome_893);
      }

      .st3 {
        fill: url(#Gradiente_sem_nome_8915);
      }

      .st4 {
        fill: url(#Gradiente_sem_nome_892);
      }

      .st5 {
        fill: url(#Gradiente_sem_nome_98);
      }

      .st6 {
        fill: url(#Gradiente_sem_nome_89);
      }

      .st7 {
        fill: url(#Gradiente_sem_nome_891);
      }

      .st8 {
        fill: url(#Gradiente_sem_nome_8912);
      }

      .st9 {
        fill: url(#Gradiente_sem_nome_898);
      }

      .st10 {
        fill: url(#Gradiente_sem_nome_897);
      }

      .st11 {
        fill: url(#Gradiente_sem_nome_8913);
      }

      .st12 {
        fill: url(#Gradiente_sem_nome_899);
      }

      .st13 {
        fill: url(#Gradiente_sem_nome_8911);
      }

      .st14 {
        fill: url(#Gradiente_sem_nome_8910);
      }

      .st15 {
        fill: url(#Gradiente_sem_nome_896);
      }

      .st16 {
        fill: url(#Gradiente_sem_nome_894);
      }
    </style>
    <linearGradient id="Gradiente_sem_nome_89" data-name="Gradiente sem nome 89" x1="46.41" y1="4.8" x2="49.6" y2="4.8" gradientUnits="userSpaceOnUse">
      <stop offset="0" stop-color="#00fdd3"/>
      <stop offset="1" stop-color="#00befa"/>
    </linearGradient>
    <linearGradient id="Gradiente_sem_nome_891" data-name="Gradiente sem nome 89" x1="26.61" y1="11.9" x2="33.85" y2="11.9" xlink:href="#Gradiente_sem_nome_89"/>
    <linearGradient id="Gradiente_sem_nome_892" data-name="Gradiente sem nome 89" x1="62.5" y1="12.06" x2="69.03" y2="12.06" xlink:href="#Gradiente_sem_nome_89"/>
    <linearGradient id="Gradiente_sem_nome_893" data-name="Gradiente sem nome 89" x1="0" y1="54.1" x2="96" y2="54.1" xlink:href="#Gradiente_sem_nome_89"/>
    <linearGradient id="Gradiente_sem_nome_894" data-name="Gradiente sem nome 89" x1="70.65" y1="30.17" x2="77.87" y2="30.17" xlink:href="#Gradiente_sem_nome_89"/>
    <linearGradient id="Gradiente_sem_nome_895" data-name="Gradiente sem nome 89" x1="17.56" y1="30.24" x2="25.54" y2="30.24" xlink:href="#Gradiente_sem_nome_89"/>
    <linearGradient id="Gradiente_sem_nome_896" data-name="Gradiente sem nome 89" x1="15.26" y1="39.95" x2="27.91" y2="39.95" xlink:href="#Gradiente_sem_nome_89"/>
    <linearGradient id="Gradiente_sem_nome_897" data-name="Gradiente sem nome 89" x1="68.17" y1="39.93" x2="80.78" y2="39.93" xlink:href="#Gradiente_sem_nome_89"/>
    <linearGradient id="Gradiente_sem_nome_898" data-name="Gradiente sem nome 89" x1="15.16" y1="46.71" x2="31.41" y2="46.71" xlink:href="#Gradiente_sem_nome_89"/>
    <linearGradient id="Gradiente_sem_nome_899" data-name="Gradiente sem nome 89" x1="64.85" y1="46.68" x2="80.81" y2="46.68" xlink:href="#Gradiente_sem_nome_89"/>
    <linearGradient id="Gradiente_sem_nome_8910" data-name="Gradiente sem nome 89" x1="14.87" y1="53.24" x2="34.92" y2="53.24" xlink:href="#Gradiente_sem_nome_89"/>
    <linearGradient id="Gradiente_sem_nome_8911" data-name="Gradiente sem nome 89" x1="60.74" y1="53.27" x2="80.75" y2="53.27" xlink:href="#Gradiente_sem_nome_89"/>
    <linearGradient id="Gradiente_sem_nome_8912" data-name="Gradiente sem nome 89" x1="15.26" y1="59.99" x2="35.93" y2="59.99" xlink:href="#Gradiente_sem_nome_89"/>
    <linearGradient id="Gradiente_sem_nome_8913" data-name="Gradiente sem nome 89" x1="60.14" y1="59.98" x2="80.76" y2="59.98" xlink:href="#Gradiente_sem_nome_89"/>
    <linearGradient id="Gradiente_sem_nome_8914" data-name="Gradiente sem nome 89" x1="15.21" y1="66.55" x2="39.76" y2="66.55" xlink:href="#Gradiente_sem_nome_89"/>
    <linearGradient id="Gradiente_sem_nome_8915" data-name="Gradiente sem nome 89" x1="57.61" y1="66.49" x2="80.91" y2="66.49" xlink:href="#Gradiente_sem_nome_89"/>
    <linearGradient id="Gradiente_sem_nome_98" data-name="Gradiente sem nome 98" x1="0" y1="47" x2="96" y2="47" gradientUnits="userSpaceOnUse">
      <stop offset="0" stop-color="#00befa"/>
      <stop offset="1" stop-color="#00fdd3"/>
    </linearGradient>
  </defs>
  <g id="Camada_2">
    <g id="Camada_21" data-name="Camada_2">
      <g>
        <path id="p1" class="st6" d="M47.07,0h1.8c.74,3.17.79,6.37.69,9.6-1.05-.01-2.1-.02-3.15-.03.21-3.19.37-6.38.66-9.57Z"/>
        <path id="p2" class="st7" d="M27.75,7.95c2.07,2.22,6.03,4.58,6.1,7.9-3.5,0-5.05-2.43-7.24-4.71.37-1.07.75-2.13,1.14-3.19Z"/>
        <path id="p3" class="st4" d="M68.8,7.78c.14,1.08.22,2.17.23,3.24-.74,2.65-3.94,3.93-6.08,5.32-.15-.87-.3-1.75-.45-2.62,2.04-2.05,4.12-4.04,6.3-5.94Z"/>
        <path id="p4" class="st2" d="M48.01,14.21c6.22-.25,10.78,2.91,15.09,6.98,8.45.58,17.56-1.08,25.74,1.12,0,1.58-.02,3.17-.04,4.75,2.49.52,4.91,1.13,7.2,2.25v61.34c-2.63.64-5.28,1.1-8,1.07-11.15-.09-22.31-.09-33.46-.01-.82.77-1.64,1.54-2.48,2.29h-8.46c-.52-.78-1.03-1.55-1.54-2.33-13.39-.04-26.78.11-40.17-.08-.63-.86-1.26-1.71-1.89-2.57V30.14c1.82-2.14,4.12-2.44,6.71-3.04.61-1.84.68-5.88,3.42-5.73,7.59-.44,15.26.03,22.87-.16,4.33-4.02,8.8-7.24,15.01-7ZM42.98,53.72c.25-3.69.38-7.37.36-11.07-1.26-1.09-2.51-2.19-3.75-3.3-.04-1.66-.1-3.32-.16-4.99,2.02-1.08,4.09-2.04,6.17-2.97,0,.84-.03,1.69-.04,2.54-1.45,1.33-2.91,2.31-3.4,4.35,3.87,1.39,7.86,1.25,11.77.14-.29-2.42-1.95-3.19-3.62-4.63.09-.71.18-1.42.27-2.13,2.49.89,5.08.8,5.95,3.81,1.09,3.65-1.67,5.23-3.81,7.58-.04,3.15-.04,6.3-.05,9.45.57.1,1.15.21,1.72.31,3-6.64,9.57-13.31,9.1-20.72-.18-8.2-7.27-15.08-15.49-14.79-8.58-.25-15.57,7.33-15.47,15.74.06,4.2,2.63,8.26,4.65,11.82,1.68,3.14,3.89,5.88,5.8,8.86ZM10.32,75.63c8.89-.03,17.79.05,26.68-.07,3.31-.11,6.45.62,9.63,1.41-.02-1.93-.03-3.85-.04-5.78,1.01.1,2.01.2,3.02.3-.03,1.76-.06,3.51-.1,5.27,3.47-.68,6.94-1.24,10.49-1.18,8.59.09,17.18.04,25.77.07-.04-17.14.02-34.28-.03-51.42-6.89,0-13.78,0-20.67.01,1.22,4.85,2.47,9.4.6,14.32-2.4,7.09-8.04,11.09-8.19,18.39-.25,3.6-.36,6.74-3.45,9.11-4.16,3.54-10.2,2.67-13.46-1.6-3.27-4.25-1.15-8.9-3.45-13.76-2.48-5.03-6.13-8.68-7.34-14.44-.99-4.31.26-7.99,1.47-12.07-6.89.26-13.86-.29-20.73.25-.41,3.81-.17,7.72-.2,11.56.02,13.21.01,26.42,0,39.63ZM3.48,30.04c-.38,19.51-.07,39.05-.16,58.57,13.4-.05,26.79.02,40.18-.04.8.96,1.59,1.92,2.39,2.88,1.49,0,2.98,0,4.48,0,.76-.96,1.52-1.92,2.29-2.87,13.34.08,26.68.01,40.02.04-.08-19.55.26-39.13-.18-58.67-1.12.53-2.22,1.1-3.29,1.72-.5,2.03-.41,4.26-.45,6.34.15,12.67-.02,25.33.11,38-.02,2.49.09,5.11-.41,7.56-1.53,1.66-4.32,1.69-6.41,1.75-10.33,0-20.67-.18-30.99.06-1.06.96-2.09,2.2-3.39,2.84-.73-.91-1.45-1.85-2.14-2.79-10.86-.37-21.74-.02-32.61-.14-1.61-.1-4.43-.28-5.26-1.91-.57-2.02-.44-4.28-.49-6.37.14-13-.03-26,.11-39,0-2.02.03-4.12-.3-6.13-1.09-.73-2.33-1.25-3.5-1.83ZM46.48,52.74c1.1-.04,2.2-.07,3.3-.11.02-3.62.04-7.23-.05-10.85-1.04.32-2.07.67-3.09,1.05-.42,3.26-.17,6.63-.16,9.91ZM41.8,55.59c-.02,1.06-.03,2.13-.04,3.19,4.26-.03,8.53-.03,12.8-.07-.05-1.03-.11-2.06-.16-3.1-4.2,0-8.4,0-12.6-.02ZM42.04,62.56c2.22,1.07,4.36,2.65,6.94,2.25,1.81-.36,3.54-1.45,5.17-2.26-4.1-.41-8.01-.41-12.11.01ZM10.74,82.08c12,.12,24.08.26,36.08-.1-2.16-1.71-3.73-3.5-6.75-3.25-10-.04-20.01.03-30.01.03.21,1.11.42,2.22.68,3.32ZM49.39,82.05c12.05.31,24.12.04,36.17.16.09-1.16.18-2.33.26-3.49-9.97.06-19.95-.07-29.91.02-2.98-.21-4.41,1.63-6.52,3.31Z"/>
        <path id="p7" class="st16" d="M77.36,28.58c.17,1.06.34,2.11.51,3.17-2.41.01-4.82-.01-7.22-.07.37-.96.76-1.92,1.17-2.87,1.84-.14,3.69-.18,5.54-.23Z"/>
        <path id="p8" class="st0" d="M19.77,28.74c1.91,0,3.87.24,5.77.45-.08.84-.15,1.68-.22,2.52-2.59.08-5.17.04-7.76-.15.7-.98,1.37-1.96,2.21-2.82Z"/>
        <path id="p10" class="st15" d="M27.91,38.57c-.09.94-.19,1.88-.28,2.82-4.09.06-8.1.15-12.18-.09-.08-.9-.15-1.8-.19-2.69,4.19-.28,8.46-.17,12.65-.04Z"/>
        <path id="p11" class="st10" d="M80.78,38.51c-.05.96-.1,1.92-.14,2.88-4.16.05-8.31.05-12.47-.04.18-.93.38-1.85.59-2.77,3.99-.23,8.02-.11,12.02-.07Z"/>
        <path id="p13" class="st9" d="M31.31,45.37c.03.77.06,1.55.1,2.33-5.35.6-10.93.88-16.25-.03.06-.76.13-1.52.21-2.28,5.29-.38,10.64-.2,15.94-.02Z"/>
        <path id="p14" class="st12" d="M65.87,45.44c4.92-.56,9.99-.14,14.94-.15-.11.97-.21,1.95-.32,2.92-5.22,0-10.43.04-15.64-.05.31-.92.65-1.82,1.02-2.72Z"/>
        <path id="p15" class="st14" d="M15.83,51.83c6.27-.29,12.57-.06,18.85-.1.08.98.16,1.96.24,2.94-6.68.13-13.38.25-20.05-.11.31-.91.62-1.82.96-2.73Z"/>
        <path id="p16" class="st13" d="M60.74,51.81c6.62-.18,13.25-.07,19.87-.09.05,1,.09,1.99.14,2.98-6.24-.08-12.66.47-18.86-.21-.41-.88-.8-1.77-1.15-2.68Z"/>
        <path id="p18" class="st8" d="M35.59,58.5c.11.96.23,1.91.34,2.86-6.82.18-13.68.34-20.51,0-.08-.91-.13-1.82-.16-2.73,6.76-.38,13.56-.14,20.33-.14Z"/>
        <path id="p19" class="st11" d="M80.76,58.54c-.01.97-.03,1.94-.04,2.91-6.86.07-13.72.14-20.58-.05.21-.93.43-1.85.66-2.77,6.64-.36,13.31-.13,19.96-.09Z"/>
        <path id="p21" class="st1" d="M15.47,65.55c5.62-1.34,11.79-.69,17.54-.79,2.78-.15,4.53.92,6.75,2.43-7.85,1.97-16.5.96-24.55,1,.05-.89.13-1.77.26-2.64Z"/>
        <path id="p22" class="st3" d="M59.79,65.15c6.93-.9,14.17-.35,21.12.17-.14.99-.27,1.98-.41,2.97-7.62-.02-15.26.12-22.89-.1.64-1,.74-3.07,2.18-3.04Z"/>
      </g>
      <g>
        <path id="p12" data-name="p1" class="st5" d="M47.07,0h1.8c.74,3.17.79,6.37.69,9.6-1.05-.01-2.1-.02-3.15-.03.21-3.19.37-6.38.66-9.57Z"/>
        <path id="p23" data-name="p2" class="st5" d="M27.75,7.95c2.07,2.22,6.03,4.58,6.1,7.9-3.5,0-5.05-2.43-7.24-4.71.37-1.07.75-2.13,1.14-3.19Z"/>
        <path id="p31" data-name="p3" class="st5" d="M68.8,7.78c.14,1.08.22,2.17.23,3.24-.74,2.65-3.94,3.93-6.08,5.32-.15-.87-.3-1.75-.45-2.62,2.04-2.05,4.12-4.04,6.3-5.94Z"/>
        <path id="p41" data-name="p4" class="st5" d="M48.01,14.21c6.22-.25,10.78,2.91,15.09,6.98,8.45.58,17.56-1.08,25.74,1.12,0,1.58-.02,3.17-.04,4.75,2.49.52,4.91,1.13,7.2,2.25v61.34c-2.63.64-5.28,1.1-8,1.07-11.15-.09-22.31-.09-33.46-.01-.82.77-1.64,1.54-2.48,2.29h-8.46c-.52-.78-1.03-1.55-1.54-2.33-13.39-.04-26.78.11-40.17-.08-.63-.86-1.26-1.71-1.89-2.57V30.14c1.82-2.14,4.12-2.44,6.71-3.04.61-1.84.68-5.88,3.42-5.73,7.59-.44,15.26.03,22.87-.16,4.33-4.02,8.8-7.24,15.01-7ZM42.98,53.72c.25-3.69.38-7.37.36-11.07-1.26-1.09-2.51-2.19-3.75-3.3-.04-1.66-.1-3.32-.16-4.99,2.02-1.08,4.09-2.04,6.17-2.97,0,.84-.03,1.69-.04,2.54-1.45,1.33-2.91,2.31-3.4,4.35,3.87,1.39,7.86,1.25,11.77.14-.29-2.42-1.95-3.19-3.62-4.63.09-.71.18-1.42.27-2.13,2.49.89,5.08.8,5.95,3.81,1.09,3.65-1.67,5.23-3.81,7.58-.04,3.15-.04,6.3-.05,9.45.57.1,1.15.21,1.72.31,3-6.64,9.57-13.31,9.1-20.72-.18-8.2-7.27-15.08-15.49-14.79-8.58-.25-15.57,7.33-15.47,15.74.06,4.2,2.63,8.26,4.65,11.82,1.68,3.14,3.89,5.88,5.8,8.86ZM10.32,75.63c8.89-.03,17.79.05,26.68-.07,3.31-.11,6.45.62,9.63,1.41-.02-1.93-.03-3.85-.04-5.78,1.01.1,2.01.2,3.02.3-.03,1.76-.06,3.51-.1,5.27,3.47-.68,6.94-1.24,10.49-1.18,8.59.09,17.18.04,25.77.07-.04-17.14.02-34.28-.03-51.42-6.89,0-13.78,0-20.67.01,1.22,4.85,2.47,9.4.6,14.32-2.4,7.09-8.04,11.09-8.19,18.39-.25,3.6-.36,6.74-3.45,9.11-4.16,3.54-10.2,2.67-13.46-1.6-3.27-4.25-1.15-8.9-3.45-13.76-2.48-5.03-6.13-8.68-7.34-14.44-.99-4.31.26-7.99,1.47-12.07-6.89.26-13.86-.29-20.73.25-.41,3.81-.17,7.72-.2,11.56.02,13.21.01,26.42,0,39.63ZM3.48,30.04c-.38,19.51-.07,39.05-.16,58.57,13.4-.05,26.79.02,40.18-.04.8.96,1.59,1.92,2.39,2.88,1.49,0,2.98,0,4.48,0,.76-.96,1.52-1.92,2.29-2.87,13.34.08,26.68.01,40.02.04-.08-19.55.26-39.13-.18-58.67-1.12.53-2.22,1.1-3.29,1.72-.5,2.03-.41,4.26-.45,6.34.15,12.67-.02,25.33.11,38-.02,2.49.09,5.11-.41,7.56-1.53,1.66-4.32,1.69-6.41,1.75-10.33,0-20.67-.18-30.99.06-1.06.96-2.09,2.2-3.39,2.84-.73-.91-1.45-1.85-2.14-2.79-10.86-.37-21.74-.02-32.61-.14-1.61-.1-4.43-.28-5.26-1.91-.57-2.02-.44-4.28-.49-6.37.14-13-.03-26,.11-39,0-2.02.03-4.12-.3-6.13-1.09-.73-2.33-1.25-3.5-1.83ZM46.48,52.74c1.1-.04,2.2-.07,3.3-.11.02-3.62.04-7.23-.05-10.85-1.04.32-2.07.67-3.09,1.05-.42,3.26-.17,6.63-.16,9.91ZM41.8,55.59c-.02,1.06-.03,2.13-.04,3.19,4.26-.03,8.53-.03,12.8-.07-.05-1.03-.11-2.06-.16-3.1-4.2,0-8.4,0-12.6-.02ZM42.04,62.56c2.22,1.07,4.36,2.65,6.94,2.25,1.81-.36,3.54-1.45,5.17-2.26-4.1-.41-8.01-.41-12.11.01ZM10.74,82.08c12,.12,24.08.26,36.08-.1-2.16-1.71-3.73-3.5-6.75-3.25-10-.04-20.01.03-30.01.03.21,1.11.42,2.22.68,3.32ZM49.39,82.05c12.05.31,24.12.04,36.17.16.09-1.16.18-2.33.26-3.49-9.97.06-19.95-.07-29.91.02-2.98-.21-4.41,1.63-6.52,3.31Z"/>
        <path id="p71" data-name="p7" class="st5" d="M77.36,28.58c.17,1.06.34,2.11.51,3.17-2.41.01-4.82-.01-7.22-.07.37-.96.76-1.92,1.17-2.87,1.84-.14,3.69-.18,5.54-.23Z"/>
        <path id="p81" data-name="p8" class="st5" d="M19.77,28.74c1.91,0,3.87.24,5.77.45-.08.84-.15,1.68-.22,2.52-2.59.08-5.17.04-7.76-.15.7-.98,1.37-1.96,2.21-2.82Z"/>
        <path id="p101" data-name="p10" class="st5" d="M27.91,38.57c-.09.94-.19,1.88-.28,2.82-4.09.06-8.1.15-12.18-.09-.08-.9-.15-1.8-.19-2.69,4.19-.28,8.46-.17,12.65-.04Z"/>
        <path id="p111" data-name="p11" class="st5" d="M80.78,38.51c-.05.96-.1,1.92-.14,2.88-4.16.05-8.31.05-12.47-.04.18-.93.38-1.85.59-2.77,3.99-.23,8.02-.11,12.02-.07Z"/>
        <path id="p131" data-name="p13" class="st5" d="M31.31,45.37c.03.77.06,1.55.1,2.33-5.35.6-10.93.88-16.25-.03.06-.76.13-1.52.21-2.28,5.29-.38,10.64-.2,15.94-.02Z"/>
        <path id="p141" data-name="p14" class="st5" d="M65.87,45.44c4.92-.56,9.99-.14,14.94-.15-.11.97-.21,1.95-.32,2.92-5.22,0-10.43.04-15.64-.05.31-.92.65-1.82,1.02-2.72Z"/>
        <path id="p151" data-name="p15" class="st5" d="M15.83,51.83c6.27-.29,12.57-.06,18.85-.1.08.98.16,1.96.24,2.94-6.68.13-13.38.25-20.05-.11.31-.91.62-1.82.96-2.73Z"/>
        <path id="p161" data-name="p16" class="st5" d="M60.74,51.81c6.62-.18,13.25-.07,19.87-.09.05,1,.09,1.99.14,2.98-6.24-.08-12.66.47-18.86-.21-.41-.88-.8-1.77-1.15-2.68Z"/>
        <path id="p181" data-name="p18" class="st5" d="M35.59,58.5c.11.96.23,1.91.34,2.86-6.82.18-13.68.34-20.51,0-.08-.91-.13-1.82-.16-2.73,6.76-.38,13.56-.14,20.33-.14Z"/>
        <path id="p191" data-name="p19" class="st5" d="M80.76,58.54c-.01.97-.03,1.94-.04,2.91-6.86.07-13.72.14-20.58-.05.21-.93.43-1.85.66-2.77,6.64-.36,13.31-.13,19.96-.09Z"/>
        <path id="p211" data-name="p21" class="st5" d="M15.47,65.55c5.62-1.34,11.79-.69,17.54-.79,2.78-.15,4.53.92,6.75,2.43-7.85,1.97-16.5.96-24.55,1,.05-.89.13-1.77.26-2.64Z"/>
        <path id="p221" data-name="p22" class="st5" d="M59.79,65.15c6.93-.9,14.17-.35,21.12.17-.14.99-.27,1.98-.41,2.97-7.62-.02-15.26.12-22.89-.1.64-1,.74-3.07,2.18-3.04Z"/>
      </g>
    </g>
  </g>
</svg>