<?xml version="1.0" encoding="UTF-8"?>
<svg id="Camada_1" xmlns="http://www.w3.org/2000/svg" version="1.1" xmlns:xlink="http://www.w3.org/1999/xlink" viewBox="0 0 145 89">
  <!-- Generator: Adobe Illustrator 30.2.1, SVG Export Plug-In . SVG Version: 2.1.1 Build 1)  -->
  <defs>
    <style>
      .st0 {
        fill: url(#Gradiente_sem_nome_72);
      }

      .st1 {
        fill: #00dfe7;
      }
    </style>
    <linearGradient id="Gradiente_sem_nome_72" data-name="Gradiente sem nome 72" x1=".1" y1="44.5" x2="144.9" y2="44.5" gradientUnits="userSpaceOnUse">
      <stop offset="0" stop-color="#00befa"/>
      <stop offset="1" stop-color="#00fdd3"/>
    </linearGradient>
  </defs>
  <g>
    <path id="p1" class="st1" d="M4.09,0h114.25l.48.49c1.54,1.7,3.09,3.08,3.4,5.5.4,3.85.14,7.79.2,11.66-1.57.01-3.13.03-4.7.05.1-4.38.12-8.75-.19-13.12-5.82-.36-11.6-.2-17.43-.22-28-.01-56,.02-84-.01-3.35.05-6.87-.27-10.18.31-1.17,1.3-1.13,2.67-1.17,4.32,0,17.21.1,34.42-.04,51.63,30.81.2,61.63.03,92.44.09.97,1.55,1.94,3.1,2.91,4.65-31.77-.02-63.55-.1-95.32.05.01,2.3.02,4.6.02,6.89.42.68.83,1.36,1.24,2.04,33.03.21,66.07.04,99.1.1,5.78.06,11.46-.27,17.22.17-1.25,1.23-2.53,2.73-4.06,3.63-1.61.52-3.48.43-5.16.48-14.21-.09-28.43,0-42.65-.05-.01,2.32-.02,4.65-.02,6.98,2.41-.01,4.83-.02,7.25-.04.5.44,1,.88,1.5,1.31.15.7.31,1.4.47,2.09h-36.65c.5-.84.69-2.73,1.65-3.14,2.54-.48,5.26-.22,7.84-.3,0-2.29,0-4.58-.03-6.87-15.11-.05-30.27.05-45.38-.03-2.88.15-4.27-1.68-6.02-3.6-.34-1.08-.66-2.16-.96-3.25V6.62C1,3.93,2.17,2.03,4.09,0ZM56.72,78.7c0,2.29-.03,4.59-.04,6.88,3.05.05,6.09.05,9.14.08-.01-2.33-.02-4.67-.03-7.01-3.02.02-6.05.02-9.07.05Z"/>
    <path id="p3" class="st1" d="M67.29,13.51c1.09,2.25.15,4.76-.37,7.05-2.62,9.09-4.9,18.27-7.33,27.42-.32,1.14-.71,2.26-1.35,3.28-1.46.84-2.86.47-3.63-1.08.22-2.01.79-4.06,1.32-6.02,2.72-9.8,5.36-19.63,7.89-29.49.9-.94,2.05-1.32,3.47-1.16Z"/>
    <path id="p4" class="st1" d="M49.21,16.53c2.2.85,2.3,3.67.28,4.8-5.51,3.89-11.38,7.25-16.72,11.42,5.71,3.81,11.57,7.46,17.15,11.45,2.05,1.49.3,3.12-.37,4.81-6.66-4.13-13.05-8.66-19.64-12.88-1.64-1.42-4.04-1.93-3.27-4.57,3.21-2.84,7.15-4.9,10.65-7.37,3.97-2.52,7.72-5.54,11.92-7.66Z"/>
    <path id="p5" class="st1" d="M73.75,16.3c5.9,4.12,11.91,8.07,17.95,11.99,1.98,1.29,3.69,2.88,5.29,4.61-7.37,5.76-15.57,10.42-23.14,15.93-1.25-1.33-2.75-1.55-2.05-3.72,5.68-4.65,12.33-8.11,18.18-12.59-5.77-4.08-11.94-7.66-17.57-11.92-2.04-1.39.18-3.23,1.34-4.3Z"/>
    <path id="p6" class="st1" d="M121.1,22.43c4.33-.48,5.63,1.99,7.92,4.96,1.66-.29,3.44-.82,5.12-.67,2.44,1.14,4.93,3.52,6.19,5.89.59,1.64-.28,3.84-.55,5.5,1.5,1.23,3.22,2.45,4.4,3.98.93,1.7.72,4.09.62,5.98-.05,2.75-3.12,4.34-4.98,5.94.26,2.13,1.44,4.77-.08,6.61-1.37,2.04-3.29,3.83-5.55,4.84-1.67.17-3.48-.33-5.14-.63-1.18,1.5-2.35,3.2-3.82,4.42-2.36.66-5.27.61-7.65.11-1.81-.79-3.1-3.07-4.4-4.52-1.67.29-3.51.81-5.21.62-2.19-1.09-4.08-2.87-5.46-4.88-1.52-1.72-.33-4.51-.12-6.57-2.98-2.3-5.4-3.69-4.95-8.01-.44-4.27,2.18-5.55,5.01-7.89-.25-1.66-1.1-3.87-.52-5.49,1.31-2.39,3.7-4.65,6.11-5.91,1.71-.13,3.51.39,5.19.68,2.28-2.93,3.57-5.42,7.87-4.96ZM118.63,27.22c-.11.97-.23,1.93-.33,2.91-2.16.86-4.31,1.76-6.44,2.68-.73-.69-1.46-1.38-2.19-2.07-1.36,1.25-2.67,2.54-3.94,3.88.71.74,1.41,1.47,2.12,2.2-.96,2.15-1.88,4.31-2.77,6.49-1.09.12-2.18.25-3.28.38,0,1.58-.02,3.16-.03,4.74,1.1.12,2.19.25,3.29.37.84,2.07,1.68,4.14,2.54,6.21-.43.97-.89,1.94-1.23,2.93.63,1.38,1.86,2.52,2.8,3.7.89-.73,1.79-1.46,2.68-2.2,2.15.91,4.3,1.77,6.48,2.6.12,1.12.25,2.23.37,3.34,1.56.01,3.12.01,4.69,0,.33-1.16.66-2.32.99-3.48,2.02-.79,4.02-1.62,6.01-2.47.85.7,1.71,1.39,2.56,2.09,1.15-1.19,2.3-2.38,3.46-3.56-.66-.93-1.31-1.86-1.97-2.78,1.05-2.18,2.05-4.38,3.05-6.57,1-.03,1.99-.07,2.99-.1-.01-1.62-.02-3.23-.04-4.85-1.09-.11-2.17-.23-3.26-.35-.86-2.13-1.75-4.25-2.68-6.35.65-1.02,1.29-2.03,1.94-3.05-1.13-.89-2.23-1.87-3.46-2.61-1,.37-1.93.85-2.9,1.31-1.99-.83-3.99-1.65-5.99-2.47-.28-1.19-.57-2.38-.88-3.56-1.54.13-3.06.33-4.58.64Z"/>
    <path id="p8" class="st1" d="M117.69,37.8c3.37-1.06,7.13-.77,9.65,1.94,4.15,3.79,3.31,11.18-1.5,14.05-3.88,2.01-9.55,1.38-12.06-2.54-3.14-4.76-1.34-11.11,3.91-13.45ZM118.52,42.43c-2.31,1.67-2.77,4.73-.65,6.77,2.43,2.94,7.34,1.29,7.76-2.39.71-3.68-4.16-7.19-7.11-4.38Z"/>
    <path id="p10" class="st1" d="M12.72,67.13c.07,1.25.12,2.51.17,3.76-1.1-.17-2.2-.36-3.3-.56.03-.84.08-1.68.16-2.51.99-.25,1.98-.47,2.97-.69Z"/>
    <path id="p11" class="st1" d="M20.42,67.56c.18.99.34,1.98.49,2.98-1.21.06-2.42.11-3.63.15.12-1.11.26-2.22.41-3.32.92.04,1.83.1,2.73.19Z"/>
    <path id="p12" class="st1" d="M69.12,67.56c2.55.09,4.05.76,3.39,3.72-7.28,1.09-15.02.39-22.37.31.23-1.27.43-2.51.76-3.74,6-.64,12.19-.19,18.22-.29Z"/>
  </g>
  <g>
    <path id="p13" data-name="p1" class="st0" d="M4.09,0h114.25l.48.49c1.54,1.7,3.09,3.08,3.4,5.5.4,3.85.14,7.79.2,11.66-1.57.01-3.13.03-4.7.05.1-4.38.12-8.75-.19-13.12-5.82-.36-11.6-.2-17.43-.22-28-.01-56,.02-84-.01-3.35.05-6.87-.27-10.18.31-1.17,1.3-1.13,2.67-1.17,4.32,0,17.21.1,34.42-.04,51.63,30.81.2,61.63.03,92.44.09.97,1.55,1.94,3.1,2.91,4.65-31.77-.02-63.55-.1-95.32.05.01,2.3.02,4.6.02,6.89.42.68.83,1.36,1.24,2.04,33.03.21,66.07.04,99.1.1,5.78.06,11.46-.27,17.22.17-1.25,1.23-2.53,2.73-4.06,3.63-1.61.52-3.48.43-5.16.48-14.21-.09-28.43,0-42.65-.05-.01,2.32-.02,4.65-.02,6.98,2.41-.01,4.83-.02,7.25-.04.5.44,1,.88,1.5,1.31.15.7.31,1.4.47,2.09h-36.65c.5-.84.69-2.73,1.65-3.14,2.54-.48,5.26-.22,7.84-.3,0-2.29,0-4.58-.03-6.87-15.11-.05-30.27.05-45.38-.03-2.88.15-4.27-1.68-6.02-3.6-.34-1.08-.66-2.16-.96-3.25V6.62C1,3.93,2.17,2.03,4.09,0ZM56.72,78.7c0,2.29-.03,4.59-.04,6.88,3.05.05,6.09.05,9.14.08-.01-2.33-.02-4.67-.03-7.01-3.02.02-6.05.02-9.07.05Z"/>
    <path id="p31" data-name="p3" class="st0" d="M67.29,13.51c1.09,2.25.15,4.76-.37,7.05-2.62,9.09-4.9,18.27-7.33,27.42-.32,1.14-.71,2.26-1.35,3.28-1.46.84-2.86.47-3.63-1.08.22-2.01.79-4.06,1.32-6.02,2.72-9.8,5.36-19.63,7.89-29.49.9-.94,2.05-1.32,3.47-1.16Z"/>
    <path id="p41" data-name="p4" class="st0" d="M49.21,16.53c2.2.85,2.3,3.67.28,4.8-5.51,3.89-11.38,7.25-16.72,11.42,5.71,3.81,11.57,7.46,17.15,11.45,2.05,1.49.3,3.12-.37,4.81-6.66-4.13-13.05-8.66-19.64-12.88-1.64-1.42-4.04-1.93-3.27-4.57,3.21-2.84,7.15-4.9,10.65-7.37,3.97-2.52,7.72-5.54,11.92-7.66Z"/>
    <path id="p51" data-name="p5" class="st0" d="M73.75,16.3c5.9,4.12,11.91,8.07,17.95,11.99,1.98,1.29,3.69,2.88,5.29,4.61-7.37,5.76-15.57,10.42-23.14,15.93-1.25-1.33-2.75-1.55-2.05-3.72,5.68-4.65,12.33-8.11,18.18-12.59-5.77-4.08-11.94-7.66-17.57-11.92-2.04-1.39.18-3.23,1.34-4.3Z"/>
    <path id="p61" data-name="p6" class="st0" d="M121.1,22.43c4.33-.48,5.63,1.99,7.92,4.96,1.66-.29,3.44-.82,5.12-.67,2.44,1.14,4.93,3.52,6.19,5.89.59,1.64-.28,3.84-.55,5.5,1.5,1.23,3.22,2.45,4.4,3.98.93,1.7.72,4.09.62,5.98-.05,2.75-3.12,4.34-4.98,5.94.26,2.13,1.44,4.77-.08,6.61-1.37,2.04-3.29,3.83-5.55,4.84-1.67.17-3.48-.33-5.14-.63-1.18,1.5-2.35,3.2-3.82,4.42-2.36.66-5.27.61-7.65.11-1.81-.79-3.1-3.07-4.4-4.52-1.67.29-3.51.81-5.21.62-2.19-1.09-4.08-2.87-5.46-4.88-1.52-1.72-.33-4.51-.12-6.57-2.98-2.3-5.4-3.69-4.95-8.01-.44-4.27,2.18-5.55,5.01-7.89-.25-1.66-1.1-3.87-.52-5.49,1.31-2.39,3.7-4.65,6.11-5.91,1.71-.13,3.51.39,5.19.68,2.28-2.93,3.57-5.42,7.87-4.96ZM118.63,27.22c-.11.97-.23,1.93-.33,2.91-2.16.86-4.31,1.76-6.44,2.68-.73-.69-1.46-1.38-2.19-2.07-1.36,1.25-2.67,2.54-3.94,3.88.71.74,1.41,1.47,2.12,2.2-.96,2.15-1.88,4.31-2.77,6.49-1.09.12-2.18.25-3.28.38,0,1.58-.02,3.16-.03,4.74,1.1.12,2.19.25,3.29.37.84,2.07,1.68,4.14,2.54,6.21-.43.97-.89,1.94-1.23,2.93.63,1.38,1.86,2.52,2.8,3.7.89-.73,1.79-1.46,2.68-2.2,2.15.91,4.3,1.77,6.48,2.6.12,1.12.25,2.23.37,3.34,1.56.01,3.12.01,4.69,0,.33-1.16.66-2.32.99-3.48,2.02-.79,4.02-1.62,6.01-2.47.85.7,1.71,1.39,2.56,2.09,1.15-1.19,2.3-2.38,3.46-3.56-.66-.93-1.31-1.86-1.97-2.78,1.05-2.18,2.05-4.38,3.05-6.57,1-.03,1.99-.07,2.99-.1-.01-1.62-.02-3.23-.04-4.85-1.09-.11-2.17-.23-3.26-.35-.86-2.13-1.75-4.25-2.68-6.35.65-1.02,1.29-2.03,1.94-3.05-1.13-.89-2.23-1.87-3.46-2.61-1,.37-1.93.85-2.9,1.31-1.99-.83-3.99-1.65-5.99-2.47-.28-1.19-.57-2.38-.88-3.56-1.54.13-3.06.33-4.58.64Z"/>
    <path id="p81" data-name="p8" class="st0" d="M117.69,37.8c3.37-1.06,7.13-.77,9.65,1.94,4.15,3.79,3.31,11.18-1.5,14.05-3.88,2.01-9.55,1.38-12.06-2.54-3.14-4.76-1.34-11.11,3.91-13.45ZM118.52,42.43c-2.31,1.67-2.77,4.73-.65,6.77,2.43,2.94,7.34,1.29,7.76-2.39.71-3.68-4.16-7.19-7.11-4.38Z"/>
    <path id="p101" data-name="p10" class="st0" d="M12.72,67.13c.07,1.25.12,2.51.17,3.76-1.1-.17-2.2-.36-3.3-.56.03-.84.08-1.68.16-2.51.99-.25,1.98-.47,2.97-.69Z"/>
    <path id="p111" data-name="p11" class="st0" d="M20.42,67.56c.18.99.34,1.98.49,2.98-1.21.06-2.42.11-3.63.15.12-1.11.26-2.22.41-3.32.92.04,1.83.1,2.73.19Z"/>
    <path id="p121" data-name="p12" class="st0" d="M69.12,67.56c2.55.09,4.05.76,3.39,3.72-7.28,1.09-15.02.39-22.37.31.23-1.27.43-2.51.76-3.74,6-.64,12.19-.19,18.22-.29Z"/>
  </g>
</svg>