<?xml version="1.0" encoding="UTF-8"?>
<svg id="Camada_1" xmlns="http://www.w3.org/2000/svg" version="1.1" viewBox="0 0 1920 1080">
  <!-- Generator: Adobe Illustrator 30.2.1, SVG Export Plug-In . SVG Version: 2.1.1 Build 1)  -->
  <defs>
    <style>
      .st0 {
        fill: #858585;
      }
    </style>
  </defs>
  <path class="st0" d="M618.88,117.56c227.37-.04,454.75-.02,682.14,0,12.25-.14,23.91,6.16,30.36,16.59,4.61,7.29,6.05,15.79,4.94,24.28-25.4,228.34-50.75,456.7-76.13,685.03-1.07,8.62-1.14,17.32-5.43,25.07-4.75,9.09-13.27,15.19-23.08,17.81-85.84,24.55-171.7,49.06-257.54,73.58-4.71,1.3-9.17,2.52-14.13,2.54-6.7.06-13.7-2.56-20.13-4.36-80.45-23-160.89-45.96-241.31-68.96-7.71-2.31-16.1-3.78-22.69-8.51-8.62-6.03-13.91-15.58-14.88-26.02-25.42-228.57-50.77-457.15-76.19-685.74-.95-9.63-3-18.14.39-27.61,4.84-14.22,18.66-23.93,33.68-23.72M754.23,294.15c2.21,29.74,4.48,59.49,6.72,89.25,103.46.04,206.93,0,310.37.02-2.21,29.8-4.48,59.57-6.72,89.37-68.98.06-137.93,0-206.91.04,1.49,29.8,2.95,59.6,4.48,89.39,65.98.02,131.94-.04,197.9.02-2.27,33.5-4.46,66.99-6.76,100.47-30.6,10.58-61.33,20.81-91.96,31.29-30.83-10.35-61.6-20.95-92.45-31.29-.76-18.62-1.51-37.24-2.27-55.85h-89.91c2.23,40.96,4.46,81.93,6.74,122.89,59.22,19.26,118.45,38.58,177.61,58.07,59.29-19.26,118.53-38.62,177.71-58.11,8.86-145.19,17.77-290.39,26.97-435.56h-411.52,0Z"/>
</svg>