<?xml version="1.0" encoding="UTF-8"?>
<svg id="Camada_1" xmlns="http://www.w3.org/2000/svg" version="1.1" viewBox="0 0 1920 1080">
  <!-- Generator: Adobe Illustrator 30.2.1, SVG Export Plug-In . SVG Version: 2.1.1 Build 1)  -->
  <defs>
    <style>
      .st0 {
        fill: #181818;
      }

      .st1 {
        stroke: #181818;
      }

      .st1, .st2, .st3 {
        fill: none;
        stroke-miterlimit: 10;
        stroke-width: 10px;
      }

      .st4 {
        fill: #b0b0b0;
      }

      .st2 {
        stroke: #b0b0b0;
      }

      .st3 {
        stroke: gray;
      }

      .st5 {
        fill: gray;
      }
    </style>
  </defs>
  <path class="st1" d="M763.91,133.04c127.88.03,255.73,0,383.61,0,17.51.09,34.64-.73,52.04,1.84,39.77,2.84,78.51,17.39,108.52,43.98,35.08,30.98,54.99,75.75,57.95,122.2.47,8.81.64,17.63.61,26.44-.12,146.39.12,292.89-.12,439.24.23,59.33-27.64,117.45-78.07,149.93-32.74,21.08-72.94,30.95-111.66,30.31-144.45,0-288.93.03-433.39,0-31.74.44-64.57-5.68-93.24-19.56-42.58-20.56-75.4-59.3-88.76-104.66-7.88-24.07-8.29-48.52-7.99-73.59.09-145.36,0-290.96.06-436.32-.03-25.74,4.8-51.19,15.31-74.73,15.55-36.57,44.31-66.85,80.06-84.25,34.32-17.92,76.98-21.46,115.05-20.85M861.16,458.96c-29.66,3.43-55.37,24.19-67,51.36-6.65,15.37-7.17,31.63-5.42,48.08,3.02,17.75,12.36,34.52,25.07,47.17,13.21,12.83,29.87,19.88,47.67,23.75-15.2,4.63-30.04,9.37-42.34,19.85-16.34,13.73-29.25,34.29-30.66,55.96-.79,13.18-.73,26.21,4.04,38.71,10.07,27.64,35.4,50.89,64.86,55.64,16.16,2.64,33.7,1.64,48.93-4.66,23.78-9.81,42.81-30.66,50.04-55.4,3.13-10.25,3.07-20.62,3.13-31.24-.12-28.32-.5-56.6.41-84.92.47-17.72-.76-35.49.35-53.18.7-6.03,1.46-12.06,1.9-18.13,1.55,12.59,3.69,27.15,10.69,37.95,16.66,25.94,47.38,41.67,78.19,39.85,22.69-1.96,44.45-11.39,59.39-28.9,13.7-16.34,22.52-38.16,21.67-59.65-.2-28.2-16.13-55.52-39.85-70.54-9.58-6.03-19.74-8.29-30.04-12.42,3.1-1.7,6.3-3.22,9.58-4.57,25.83-8.46,46.3-27.23,55.32-53.06,13.53-35.14-.09-76.72-30.4-98.48-15.84-11.57-35.02-16.98-54.55-17.01-26.71-.12-53.38.15-80.09-.03-28.99.18-57.98-.26-86.94.03-27.09.21-53.35,12.21-69.81,33.97-24.66,30.98-23.75,78.27,2.43,108.08,14.06,17.39,32.91,24.71,53.44,31.77h0Z"/>
  <path class="st3" d="M875.1,285.14c28.96-.29,57.95.15,86.94-.03-1.96,11.13-3.13,22.31-2.9,33.65.85,46.21-.41,92.45.7,138.65.73,20.41-.79,40.88.35,61.26-2.23-19.62-1.11-39.53-2.34-59.27-32.27-1.11-64.45,1.08-96.69-.44-20.53-7.06-39.39-14.38-53.44-31.77-26.18-29.81-27.09-77.1-2.43-108.08,16.46-21.76,42.72-33.76,69.81-33.97h0Z"/>
  <path class="st2" d="M962.04,285.11c26.71.18,53.38-.09,80.09.03,19.53.03,38.71,5.45,54.55,17.01,30.31,21.76,43.92,63.34,30.4,98.48-9.02,25.83-29.49,44.6-55.32,53.06-13.56,3.6-26.94,4.86-40.97,4.39-23.69-.73-47.26.47-70.95-.67-1.11-46.21.15-92.45-.7-138.65-.23-11.33.94-22.52,2.9-33.65h0Z"/>
  <path class="st3" d="M1071.76,453.69c-3.28,1.35-6.47,2.87-9.58,4.57,10.31,4.13,20.47,6.38,30.04,12.42,23.72,15.02,39.65,42.34,39.85,70.54.85,21.49-7.96,43.31-21.67,59.65-14.93,17.51-36.69,26.94-59.39,28.9-30.81,1.82-61.52-13.91-78.19-39.85-7-10.81-9.14-25.36-10.69-37.95-.26-7.29-.56-14.58-.97-21.87h2.58c1.08-13.62,3.43-26.35,12.3-37.19,13.38-18.51,32.94-29.22,54.73-34.82,14.03.47,27.41-.79,40.97-4.39h0Z"/>
  <path class="st1" d="M959.84,457.41c23.69,1.14,47.26-.06,70.95.67-21.79,5.59-41.35,16.31-54.73,34.82-8.87,10.83-11.22,23.57-12.3,37.19h-2.58c-.29-3.84-.61-7.64-1-11.42-1.14-20.38.38-40.85-.35-61.26h0Z"/>
  <path class="st2" d="M861.16,458.96c32.24,1.52,64.42-.67,96.69.44,1.23,19.74.12,39.65,2.34,59.27.38,3.78.7,7.58,1,11.42.41,7.29.7,14.58.97,21.87-.44,6.06-1.2,12.09-1.9,18.13-2.52,19.47-1.11,39.36-2.37,58.98-32.15.5-64.25-.7-96.4.26-17.8-3.87-34.47-10.92-47.67-23.75-12.71-12.65-22.05-29.43-25.07-47.17-1.76-16.46-1.23-32.71,5.42-48.08,11.63-27.17,37.34-47.94,67-51.36h0Z"/>
  <path class="st3" d="M960.25,570.09c-1.11,17.69.12,35.46-.35,53.18-.91,28.32-.53,56.6-.41,84.92-.06,10.63,0,21-3.13,31.24-7.23,24.74-26.27,45.59-50.04,55.4-15.23,6.3-32.77,7.29-48.93,4.66-29.46-4.74-54.79-27.99-64.86-55.64-4.77-12.5-4.83-25.53-4.04-38.71,1.41-21.67,14.32-42.23,30.66-55.96,12.3-10.48,27.15-15.23,42.34-19.85,32.15-.97,64.25.23,96.4-.26,1.26-19.62-.15-39.5,2.37-58.98h0Z"/>
  <path class="st0" d="M763.91,133.04c127.88.03,255.73,0,383.61,0,17.51.09,34.64-.73,52.04,1.84,39.77,2.84,78.51,17.39,108.52,43.98,35.08,30.98,54.99,75.75,57.95,122.2.47,8.81.64,17.63.61,26.44-.12,146.39.12,292.89-.12,439.24.23,59.33-27.64,117.45-78.07,149.93-32.74,21.08-72.94,30.95-111.66,30.31-144.45,0-288.93.03-433.39,0-31.74.44-64.57-5.68-93.24-19.56-42.58-20.56-75.4-59.3-88.76-104.66-7.88-24.07-8.29-48.52-7.99-73.59.09-145.36,0-290.96.06-436.32-.03-25.74,4.8-51.19,15.31-74.73,15.55-36.57,44.31-66.85,80.06-84.25,34.32-17.92,76.98-21.46,115.05-20.85M861.16,458.96c-29.66,3.43-55.37,24.19-67,51.36-6.65,15.37-7.17,31.63-5.42,48.08,3.02,17.75,12.36,34.52,25.07,47.17,13.21,12.83,29.87,19.88,47.67,23.75-15.2,4.63-30.04,9.37-42.34,19.85-16.34,13.73-29.25,34.29-30.66,55.96-.79,13.18-.73,26.21,4.04,38.71,10.07,27.64,35.4,50.89,64.86,55.64,16.16,2.64,33.7,1.64,48.93-4.66,23.78-9.81,42.81-30.66,50.04-55.4,3.13-10.25,3.07-20.62,3.13-31.24-.12-28.32-.5-56.6.41-84.92.47-17.72-.76-35.49.35-53.18.7-6.03,1.46-12.06,1.9-18.13,1.55,12.59,3.69,27.15,10.69,37.95,16.66,25.94,47.38,41.67,78.19,39.85,22.69-1.96,44.45-11.39,59.39-28.9,13.7-16.34,22.52-38.16,21.67-59.65-.2-28.2-16.13-55.52-39.85-70.54-9.58-6.03-19.74-8.29-30.04-12.42,3.1-1.7,6.3-3.22,9.58-4.57,25.83-8.46,46.3-27.23,55.32-53.06,13.53-35.14-.09-76.72-30.4-98.48-15.84-11.57-35.02-16.98-54.55-17.01-26.71-.12-53.38.15-80.09-.03-28.99.18-57.98-.26-86.94.03-27.09.21-53.35,12.21-69.81,33.97-24.66,30.98-23.75,78.27,2.43,108.08,14.06,17.39,32.91,24.71,53.44,31.77h0Z"/>
  <path class="st5" d="M875.1,285.14c28.96-.29,57.95.15,86.94-.03-1.96,11.13-3.13,22.31-2.9,33.65.85,46.21-.41,92.45.7,138.65.73,20.41-.79,40.88.35,61.26-2.23-19.62-1.11-39.53-2.34-59.27-32.27-1.11-64.45,1.08-96.69-.44-20.53-7.06-39.39-14.38-53.44-31.77-26.18-29.81-27.09-77.1-2.43-108.08,16.46-21.76,42.72-33.76,69.81-33.97h0Z"/>
  <path class="st4" d="M962.04,285.11c26.71.18,53.38-.09,80.09.03,19.53.03,38.71,5.45,54.55,17.01,30.31,21.76,43.92,63.34,30.4,98.48-9.02,25.83-29.49,44.6-55.32,53.06-13.56,3.6-26.94,4.86-40.97,4.39-23.69-.73-47.26.47-70.95-.67-1.11-46.21.15-92.45-.7-138.65-.23-11.33.94-22.52,2.9-33.65h0Z"/>
  <path class="st5" d="M1071.76,453.69c-3.28,1.35-6.47,2.87-9.58,4.57,10.31,4.13,20.47,6.38,30.04,12.42,23.72,15.02,39.65,42.34,39.85,70.54.85,21.49-7.96,43.31-21.67,59.65-14.93,17.51-36.69,26.94-59.39,28.9-30.81,1.82-61.52-13.91-78.19-39.85-7-10.81-9.14-25.36-10.69-37.95-.26-7.29-.56-14.58-.97-21.87h2.58c1.08-13.62,3.43-26.35,12.3-37.19,13.38-18.51,32.94-29.22,54.73-34.82,14.03.47,27.41-.79,40.97-4.39h0Z"/>
  <path class="st0" d="M959.84,457.41c23.69,1.14,47.26-.06,70.95.67-21.79,5.59-41.35,16.31-54.73,34.82-8.87,10.83-11.22,23.57-12.3,37.19h-2.58c-.29-3.84-.61-7.64-1-11.42-1.14-20.38.38-40.85-.35-61.26h0Z"/>
  <path class="st4" d="M861.16,458.96c32.24,1.52,64.42-.67,96.69.44,1.23,19.74.12,39.65,2.34,59.27.38,3.78.7,7.58,1,11.42.41,7.29.7,14.58.97,21.87-.44,6.06-1.2,12.09-1.9,18.13-2.52,19.47-1.11,39.36-2.37,58.98-32.15.5-64.25-.7-96.4.26-17.8-3.87-34.47-10.92-47.67-23.75-12.71-12.65-22.05-29.43-25.07-47.17-1.76-16.46-1.23-32.71,5.42-48.08,11.63-27.17,37.34-47.94,67-51.36h0Z"/>
  <path class="st5" d="M960.25,570.09c-1.11,17.69.12,35.46-.35,53.18-.91,28.32-.53,56.6-.41,84.92-.06,10.63,0,21-3.13,31.24-7.23,24.74-26.27,45.59-50.04,55.4-15.23,6.3-32.77,7.29-48.93,4.66-29.46-4.74-54.79-27.99-64.86-55.64-4.77-12.5-4.83-25.53-4.04-38.71,1.41-21.67,14.32-42.23,30.66-55.96,12.3-10.48,27.15-15.23,42.34-19.85,32.15-.97,64.25.23,96.4-.26,1.26-19.62-.15-39.5,2.37-58.98h0Z"/>
</svg>