<?xml version="1.0" encoding="UTF-8"?>
<svg id="Camada_1" xmlns="http://www.w3.org/2000/svg" version="1.1" viewBox="0 0 1920 1080">
  <!-- Generator: Adobe Illustrator 30.2.1, SVG Export Plug-In . SVG Version: 2.1.1 Build 1)  -->
  <defs>
    <style>
      .st0 {
        stroke: gray;
      }

      .st0, .st1 {
        fill: none;
        stroke-miterlimit: 10;
        stroke-width: 10px;
      }

      .st1 {
        stroke: #000;
      }

      .st2 {
        fill: gray;
      }
    </style>
  </defs>
  <path class="st0" d="M648.75,225.7c207.34,2.08,414.78.3,622.11.89.1,209.22-.59,418.44.4,627.65-207.54-.2-415.07.4-622.51-.3V225.7M1131.48,686.08c-9.5,12.76-9.99,27.5-28.89,27.5-23.44,3.36-36.4-17.21-52.92-30.07-15.83,10.09-31.65,20.18-47.68,30.17,27.99,32.84,55,60.64,101.99,58.26,55.89-.69,98.23-59.35,74.19-111.68-16.32-39.96-63.8-48.47-95.85-71.52-9.99-6.13-11.67-15.23-4.85-27.6,20.77-6.03,32.54,5.74,49.66,14.94,15.33-9.89,30.67-19.78,45.9-29.87-30.47-38.48-77.85-61.13-123.75-33.44-43.23,25.62-44.02,94.07-2.77,121.77,27.99,18.2,59.06,29.78,84.97,51.54M925.82,509.71c-.59,58.86.79,117.81-.3,176.67,1.88,15.43-14.94,27.4-27.99,19.69-11.38-5.74-21.96-13.75-32.45-21.07-15.83,9.89-31.65,19.69-47.68,29.28,18.8,19.29,33.83,38.48,60.54,46.89,44.51,19.88,104.56-15.53,104.46-65.09,1.88-62.02.2-124.34.49-186.47-19.09.4-38.08.3-57.08.1h0Z"/>
  <path class="st1" d="M1173.03,546.21c-15.23,10.09-30.57,19.98-45.9,29.87-17.11-9.2-28.89-20.97-49.66-14.94-6.83,12.37-5.14,21.47,4.85,27.6,32.05,23.05,79.53,31.56,95.85,71.52,24.04,52.33-18.3,110.99-74.19,111.68-46.99,2.37-73.99-25.42-101.99-58.26,16.03-9.99,31.85-20.08,47.68-30.17,16.52,12.86,29.48,33.44,52.92,30.07,18.89,0,19.39-14.74,28.89-27.5-25.92-21.76-56.98-33.34-84.97-51.54-41.25-27.7-40.46-96.15,2.77-121.77,45.9-27.7,93.28-5.05,123.75,33.44h0ZM925.82,509.71c18.99.2,37.99.3,57.08-.1-.3,62.12,1.38,124.44-.49,186.47.1,49.56-59.95,84.97-104.46,65.09-26.71-8.41-41.74-27.6-60.54-46.89,16.03-9.6,31.85-19.39,47.68-29.28,10.49,7.32,21.07,15.33,32.45,21.07,13.06,7.72,29.87-4.25,27.99-19.69,1.09-58.86-.3-117.81.3-176.67h0Z"/>
  <path class="st2" d="M648.75,225.7c207.34,2.08,414.78.3,622.11.89.1,209.22-.59,418.44.4,627.65-207.54-.2-415.07.4-622.51-.3V225.7M1131.48,686.08c-9.5,12.76-9.99,27.5-28.89,27.5-23.44,3.36-36.4-17.21-52.92-30.07-15.83,10.09-31.65,20.18-47.68,30.17,27.99,32.84,55,60.64,101.99,58.26,55.89-.69,98.23-59.35,74.19-111.68-16.32-39.96-63.8-48.47-95.85-71.52-9.99-6.13-11.67-15.23-4.85-27.6,20.77-6.03,32.54,5.74,49.66,14.94,15.33-9.89,30.67-19.78,45.9-29.87-30.47-38.48-77.85-61.13-123.75-33.44-43.23,25.62-44.02,94.07-2.77,121.77,27.99,18.2,59.06,29.78,84.97,51.54M925.82,509.71c-.59,58.86.79,117.81-.3,176.67,1.88,15.43-14.94,27.4-27.99,19.69-11.38-5.74-21.96-13.75-32.45-21.07-15.83,9.89-31.65,19.69-47.68,29.28,18.8,19.29,33.83,38.48,60.54,46.89,44.51,19.88,104.56-15.53,104.46-65.09,1.88-62.02.2-124.34.49-186.47-19.09.4-38.08.3-57.08.1h0Z"/>
  <path d="M1173.03,546.21c-15.23,10.09-30.57,19.98-45.9,29.87-17.11-9.2-28.89-20.97-49.66-14.94-6.83,12.37-5.14,21.47,4.85,27.6,32.05,23.05,79.53,31.56,95.85,71.52,24.04,52.33-18.3,110.99-74.19,111.68-46.99,2.37-73.99-25.42-101.99-58.26,16.03-9.99,31.85-20.08,47.68-30.17,16.52,12.86,29.48,33.44,52.92,30.07,18.89,0,19.39-14.74,28.89-27.5-25.92-21.76-56.98-33.34-84.97-51.54-41.25-27.7-40.46-96.15,2.77-121.77,45.9-27.7,93.28-5.05,123.75,33.44h0Z"/>
  <path d="M925.82,509.71c18.99.2,37.99.3,57.08-.1-.3,62.12,1.38,124.44-.49,186.47.1,49.56-59.95,84.97-104.46,65.09-26.71-8.41-41.74-27.6-60.54-46.89,16.03-9.6,31.85-19.39,47.68-29.28,10.49,7.32,21.07,15.33,32.45,21.07,13.06,7.72,29.87-4.25,27.99-19.69,1.09-58.86-.3-117.81.3-176.67h0Z"/>
</svg>